<svg style="position:relative" version="1.1" width="840" height="540" xmlns="http://www.w3.org/2000/svg" xmlns:xlink="http://www.w3.org/1999/xlink" xmlns:a="http://ns.adobe.com/AdobeSVGViewerExtensions/3.0/" ng-if="$root.removeAll != true" class="ng-scope">
                            <g ng-preview="" ng-model="config" ng-shapes="indexedShapes" ng-etape="etape" class="ng-presentation ng-pristine ng-untouched ng-valid ng-isolate-scope ng-not-empty">
                                <g class="logo-preview ng-scope" transform="scale(0.39622641509433965)">
                                    <g class="logo-ctn"><g class="logo" id="item-wloyhhy0f2vtsembfhfumljivg4i1k65" transform="translate(174.87103271484375 0) scale(1.4877061833118435)"><path d="M15.096 30.034h24.585v64.341H15.096z" fill="#5b2dc4"></path><path d="M116.041 5.736c-3.42-3.416-7.563-5.129-12.43-5.129H32.735L30.798 21.67h7.948v.009h50.817c1.92 0 3.568.687 4.951 2.068 1.38 1.383 2.072 3.034 2.072 4.954v14.043c0 1.922-.692 3.57-2.072 4.951-1.383 1.383-3.031 2.072-4.951 2.072H43.188l7.023 21.068h53.399c4.866 0 9.01-1.711 12.43-5.127 3.417-3.418 5.125-7.561 5.125-12.43v-35.11c.001-4.87-1.707-9.016-5.124-12.432zM23.629 11.313l-10.721-.056L14.233 0l10.725.054z" fill="#5b2dc4"></path><path d="m37.082 23.272-12.08-.058 1.491-12.675 12.084.059z" fill="#ffffff"></path><path d="m9.054 22.026-8.129-.035 1.006-8.133 8.13.038zM19.486 20.335l-5.824-.025.721-5.825 5.825.028z" fill="#5b2dc4"></path><path d="m25.387 96.462-10.516-.053.081-11.028 10.516.052z" fill="#ffffff"></path><path d="m22.474 96.784-7.864-.039.107-7.857 7.861.038z" fill="#5b2dc4"></path><path d="m39.823 98.432-8.669-.038.115-8.666 8.671.041z" fill="#ffffff"></path><path d="m41.736 99.956-7.976-.038.106-7.97 7.976.036z" fill="#535663"></path><path d="m31.206 105.548-5.441-.027.069-5.432 5.442.023z" fill="#5b2dc4"></path><path d="m22.192 109.932-8.405-.038.112-8.398 8.402.038z" fill="#535663"></path><path d="m41.595 110.909-6.869-.033.092-6.866 6.871.032z" fill="#5b2dc4"></path><path d="M6.907 8.19 0 8.155.86.905 7.764.94zM33.875 23.284l-11.013-.049 1.364-10.253 11.003.05z" fill="#535663"></path></g></g>
                                </g>
                            </g>
                        </svg> 